<svg xmlns="http://www.w3.org/2000/svg" width="284.286" height="266.594" viewBox="0 0 284.286 266.594"><g opacity="0.304"><path d="M26.26,57.888a33.253,33.253,0,0,1-9.791-23.577V0H0V34.311A49.89,49.89,0,0,0,49.842,84.158H72.347V67.684H49.842A33.215,33.215,0,0,1,26.26,57.888Z" transform="translate(0 168.049)" fill="#8fd1df"/><path d="M21.74,43.48A21.74,21.74,0,1,0,0,21.74,21.723,21.723,0,0,0,21.74,43.48Z" transform="translate(25.973 78.664)" fill="#8fd1df"/><path d="M73.034,66.672h-30.5v-45.4A21.268,21.268,0,1,0,0,21.276V72.995a21.267,21.267,0,0,0,21.265,21.27c1.6,0,38.881-.108,38.881-.108l2.04,31.476a11.678,11.678,0,1,0,23.35-.514l1.24-44.7A13.736,13.736,0,0,0,73.034,66.672Z" transform="translate(26.447 129.539)" fill="#8fd1df"/><path d="M55.877,0V34.311A33.435,33.435,0,0,1,22.51,67.684H0V84.158H22.51A49.893,49.893,0,0,0,72.347,34.311V0Z" transform="translate(211.939 168.049)" fill="#8fd1df"/><path d="M21.735,43.48A21.74,21.74,0,1,0,0,21.74,21.734,21.734,0,0,0,21.735,43.48Z" transform="translate(214.838 78.664)" fill="#8fd1df"/><path d="M86.781,72.995V21.276a21.27,21.27,0,1,0-42.541,0v45.4h-30.5A13.736,13.736,0,0,0,0,80.414l1.24,44.7a11.678,11.678,0,1,0,23.35.514L26.63,94.156s37.285.108,38.88.108A21.271,21.271,0,0,0,86.781,72.995Z" transform="translate(171.063 129.538)" fill="#8fd1df"/><rect width="117.925" height="20.07" transform="translate(85.314 168.257)" fill="#8fd1df"/><rect width="13.722" height="48.582" transform="translate(135.506 199.099)" fill="#8fd1df"/><path d="M66.614,29.756a19.4,19.4,0,0,1-3.707,11.268,28.1,28.1,0,0,1-10.252,8.64L49.5,51.284l4.1,9.154a163.478,163.478,0,0,1-29.769-8.452l-.116-.049-.123-.034c-7.807-2.455-13.908-7.266-17-12.957L0,42.546c4.206,7.636,11.838,13.436,21.115,16.41v.01c7.2,2.791,22.35,8.1,38.261,9.884l6.5.716L59.156,54.53a34.215,34.215,0,0,0,9.879-9.193,26.932,26.932,0,0,0,5.071-15.58A27.626,27.626,0,0,0,66.46,11.006,39.464,39.464,0,0,0,47.741,0L45.767,7.227a31.874,31.874,0,0,1,15.175,8.847A20.067,20.067,0,0,1,66.614,29.756Z" transform="translate(133.047 49.907)" fill="#8fd1df"/><path d="M21.748,77.973,12.737,98.117l6.509-.721c22.466-2.51,43.98-10.038,54.193-13.994A53.551,53.551,0,0,0,97.547,68.1,37.637,37.637,0,0,0,107.3,43.227a36.159,36.159,0,0,0-4.367-17.136,46.99,46.99,0,0,0-19.621-18.9A62.982,62.982,0,0,0,53.65,0C39.07.01,25.8,4.658,16.037,12.374A44.271,44.271,0,0,0,4.359,26.092,36.262,36.262,0,0,0,0,43.228a36.932,36.932,0,0,0,6.94,21.31A48.052,48.052,0,0,0,21.748,77.973ZM10.972,29.623c3.376-6.333,9.142-11.88,16.546-15.837A55.5,55.5,0,0,1,53.651,7.493c12.977-.01,24.659,4.169,32.973,10.748a36.737,36.737,0,0,1,9.709,11.381,28.639,28.639,0,0,1,3.48,13.6,30.139,30.139,0,0,1-7.9,19.947A46.131,46.131,0,0,1,70.955,76.337l-.109.035-.115.049C61.887,79.85,44,86.1,25,89.057l6.444-14.4-3.164-1.62a41.58,41.58,0,0,1-15.2-12.819A29.353,29.353,0,0,1,7.485,43.226,28.64,28.64,0,0,1,10.972,29.623Z" transform="translate(68.049 0)" fill="#8fd1df"/></g></svg>