<svg xmlns="http://www.w3.org/2000/svg" xmlns:xlink="http://www.w3.org/1999/xlink" width="31" height="31" viewBox="0 0 31 31"><defs><clipPath id="a"><rect width="31" height="31" transform="translate(-1354.938 2666.062)" fill="none"/></clipPath></defs><g transform="translate(1354.938 -2666.062)" clip-path="url(#a)"><g transform="translate(-1353.365 2670.905)"><path d="M27.72,58.088a3.7,3.7,0,0,0-.8-1.642,3.259,3.259,0,0,0-.262-.283,3.9,3.9,0,0,0-2.726-1.1H3.855a3.9,3.9,0,0,0-2.725,1.1,3.329,3.329,0,0,0-.262.283,3.66,3.66,0,0,0-.793,1.642,3.542,3.542,0,0,0-.075.73V72.559a3.728,3.728,0,0,0,1.13,2.655c.086.084.172.161.266.238a3.914,3.914,0,0,0,2.46.863H23.937a3.889,3.889,0,0,0,2.46-.866,3.3,3.3,0,0,0,.265-.234,3.756,3.756,0,0,0,.814-1.163v0a3.634,3.634,0,0,0,.315-1.488V58.818A3.764,3.764,0,0,0,27.72,58.088Zm-25.2-.566a1.887,1.887,0,0,1,1.331-.538H23.937a1.88,1.88,0,0,1,1.331.538,1.833,1.833,0,0,1,.169.192L14.911,66.651a1.576,1.576,0,0,1-2.03,0L2.36,57.71A1.4,1.4,0,0,1,2.525,57.522ZM1.972,72.559V59.7l7.617,6.474L1.976,72.639A.534.534,0,0,1,1.972,72.559Zm21.965,1.834H3.855a1.9,1.9,0,0,1-.932-.241l8.032-6.82.75.636a3.4,3.4,0,0,0,4.385,0l.75-.636,8.029,6.82A1.9,1.9,0,0,1,23.937,74.393Zm1.883-1.834a.558.558,0,0,1,0,.08L18.2,66.176,25.82,59.7Z" transform="translate(0 -55.062)" fill="#073491"/></g></g></svg>