<svg xmlns="http://www.w3.org/2000/svg" width="20" height="20" viewBox="0 0 20 20"><g transform="translate(1.878)"><path d="M61.168.847c-1.46.891-1.747,3.677-1.2,5.948a19.878,19.878,0,0,0,2.881,6.374,21.882,21.882,0,0,0,5.007,5.075c1.978,1.4,4.8,2.289,6.257,1.4A7.133,7.133,0,0,0,76,17.739L75.218,16.6l-2.157-3.13c-.16-.233-1.165-.02-1.676.252a4.678,4.678,0,0,0-1.323,1.353c-.472.257-.868,0-1.694-.357A9.755,9.755,0,0,1,65.3,11.673,9.171,9.171,0,0,1,63.6,7.8c-.01-.856-.1-1.3.345-1.6A5.08,5.08,0,0,0,65.8,5.609c.472-.328,1.088-1.1.928-1.338l-2.157-3.13L63.783,0A7.716,7.716,0,0,0,61.168.847Z" transform="translate(-59.712 0.001)" fill="#333"/></g><rect width="20" height="19.954" transform="translate(0 0.046)" fill="none"/></svg>