<svg xmlns="http://www.w3.org/2000/svg" width="28" height="28" viewBox="0 0 28 28"><g transform="translate(2.629)"><path d="M61.751,1.186c-2.044,1.248-2.445,5.148-1.674,8.327a27.829,27.829,0,0,0,4.033,8.923,30.635,30.635,0,0,0,7.01,7.105c2.769,1.96,6.715,3.205,8.759,1.957a9.987,9.987,0,0,0,2.639-2.664l-1.1-1.594L78.4,18.859c-.224-.326-1.631-.028-2.346.353A6.55,6.55,0,0,0,74.2,21.106c-.661.36-1.215,0-2.372-.5-1.422-.616-3.021-2.53-4.293-4.263-1.162-1.8-2.366-3.955-2.384-5.429-.014-1.2-.136-1.821.482-2.243a7.112,7.112,0,0,0,2.593-.819c.661-.459,1.524-1.547,1.3-1.873L66.509,1.6,65.411,0A10.8,10.8,0,0,0,61.751,1.186Z" transform="translate(-59.712 0.001)" fill="#ffe804"/></g><rect width="28" height="27.936" transform="translate(0 0.064)" fill="none"/></svg>