<svg xmlns="http://www.w3.org/2000/svg" width="867.472" height="184" viewBox="0 0 867.472 184"><g transform="translate(-912.46 -272)"><text transform="translate(920.5 346)" fill="#fff" font-size="64" font-family="NotoSansJP-Black, Noto Sans JP" font-weight="800"><tspan x="0" y="0">ホームページ・EC制作から</tspan><tspan x="0" y="92">WEB広告・SEOを一社で完結</tspan></text><path d="M606.654-63.466a8.993,8.993,0,0,1,2.738.428l8.463,2.7a9,9,0,0,1,8.893-2.572l8.96,2.368a9,9,0,0,1,5.619,4.423,9,9,0,0,1,.943,2.7H654.4a9,9,0,0,1,8.561,6.217l2.6-.061a40.119,40.119,0,0,0,.135-4.546,9,9,0,0,1,2.867-6.882,9,9,0,0,1,7.072-2.358l11.52,1.216a9,9,0,0,1,6.39,3.734,9,9,0,0,1,1.577,6.477q.175-.082.355-.157l9.344-3.9a9,9,0,0,1,10.92,3.255A93.487,93.487,0,0,1,722.914-36.7c.1-1.359.192-2.686.258-3.954a9,9,0,0,1,3.242-6.461,9,9,0,0,1,4.57-2l1.429-5.455a9,9,0,0,1,4.336-5.587,9,9,0,0,1,7.034-.728c5.741,1.78,19.3,4.052,24.475,4.647a9,9,0,0,1,6.351,3.788,9,9,0,0,1,1.37,7.267l-2.3,9.536-.015.061a23.907,23.907,0,0,1,11.915,20.354c0,8.554-3.672,28.45-37.683,28.45-2.781,0-5.784-.131-9.02-.411a9,9,0,0,1-7.856-6.415L728.009-3.785q-.028-.094-.053-.188l-1.134-.277a9,9,0,0,1-6.732-7.207l-6.966,3.191a9,9,0,0,1-5.584.628A37.3,37.3,0,0,1,704.79.879c-2.4,5.076-7.728,11.257-19.222,11.257a47.808,47.808,0,0,1-9.76-1.11,9.006,9.006,0,0,1-1.384-.427,9,9,0,0,1-8.893,1.281L655.418,7.848a9,9,0,0,1-5.325-5.9q-.052-.184-.1-.368h-3.941v4.5a9,9,0,0,1-9,9h-9.6a9,9,0,0,1-8.838-7.293,9,9,0,0,1-8.826,7.229h-9.408a9,9,0,0,1-8.13-5.135,15.557,15.557,0,0,1-2.791,2.125c-4.581,2.574-9.741,3.075-16.151,3.075a9,9,0,0,1-8.553-6.2,18.283,18.283,0,0,1-4.012,1.175,9,9,0,0,1-8.043,4.957h-8.832a9,9,0,0,1-8.06-4.992H532.1A8.986,8.986,0,0,1,524.9,6.437,29.321,29.321,0,0,1,510.784,9.9,30.563,30.563,0,0,1,489.93,2.258,9,9,0,0,1,481.216,9H450.3a9,9,0,0,1-9-9V-47.68a9,9,0,0,1,9-9h30.208a9,9,0,0,1,8.915,7.759,31.537,31.537,0,0,1,21.741-8.591,28.7,28.7,0,0,1,13.758,3.5q.116-.6.218-1.2a9,9,0,0,1,3.784-5.913,9,9,0,0,1,6.879-1.4l3.3.67a8.959,8.959,0,0,1,4.763-1.362H552.7a9,9,0,0,1,8.78,7.014,8.97,8.97,0,0,1,6.26-2.534h4.348a8.988,8.988,0,0,1,7.236-3.648h8.9a9,9,0,0,1,8.9,7.673q.556-1.36,1.029-2.718A9,9,0,0,1,606.654-63.466ZM519.68-26.008a9,9,0,0,1-6-2.293c-1.586-1.419-2.045-1.419-2.319-1.419-.9,0-2.2,2.06-2.2,5.784,0,.244.024,5.976,2.072,5.976.31,0,1.133,0,2.468-1.449a9,9,0,0,1,6.827-2.9,9,9,0,0,1,1.222.112,8.965,8.965,0,0,1-.893-3.887q-.235.031-.472.05Q520.031-26.008,519.68-26.008ZM373.053-62.057a9,9,0,0,1,7.143,3.521,89.476,89.476,0,0,1,6.671,10.565,9,9,0,0,1,.675,7.244,9,9,0,0,1-4.9,5.376l-.886.391,2.1,3.744a9,9,0,0,1-.412,9.464C376.64-11.764,366.65-2.825,354.55,4.1c-7.175,4.01-17.658,7.836-24.464,8.944a9,9,0,0,1-9.269-4.434l-5.824-10.24a9,9,0,0,1-.4-8.11,8.995,8.995,0,0,1-2.428.237L309.7-9.645c-1.564-.1-3.5-.235-5.059-.235H270.656c-3.16,0-7.24.152-9.793.317a8.985,8.985,0,0,1-2.371,6.99l-8.576,9.216a9,9,0,0,1-13.608-.5L232.64,1.555c-3.244-4.066-6.655-8.343-9.21-11.4-1.869-2.249-4.17-4.9-6.241-7.227-.745,1.063-1.5,2.143-2.208,3.166l-2.245,3.213c-1.437,2.1-3,4.47-4.184,6.281a9,9,0,0,1-6.681,4.028,9,9,0,0,1-5.093-1.024,9,9,0,0,1-5.342,8.223l-10.5,4.672a9,9,0,0,1-12.118-5.147q-.08-.221-.164-.447c-7.03.787-15.32,1.654-21.905,2.342l-8,.842-6.278.818A9,9,0,0,1,122.5,2.366L120.711-8.962q-.049-.312-.077-.625l-1.015-.059c-1.564-.1-3.5-.235-5.059-.235H80.576c-3.188,0-7.31.155-9.859.322a8.985,8.985,0,0,1-4.56,6.5L57.069,1.936a9,9,0,0,1-7.014.7A9,9,0,0,1,46.578.611C45.039,7.776,38.895,12.52,30.592,12.52a98.083,98.083,0,0,1-12.252-.646A9,9,0,0,1,10.5,3.846l-.022-.224A8.969,8.969,0,0,1,5.63,2.068l-8.384-5.7a9,9,0,0,1-3.908-6.665,9,9,0,0,1,2.7-7.239,51.39,51.39,0,0,0,5.445-6.393A9,9,0,0,1-.2-25.125a9,9,0,0,1-2.972-6.683V-41.984A9,9,0,0,1-.119-48.743,9,9,0,0,1,6.976-50.91a47.182,47.182,0,0,0,5.44.438h5.9a9.1,9.1,0,0,1,1.94-7.1A9.029,9.029,0,0,1,27.2-60.9H38.656a9,9,0,0,1,7,3.342,9,9,0,0,1,1.886,7.09h4.171a48.773,48.773,0,0,0,5.639-.358,9,9,0,0,1,7.17,2.11,9,9,0,0,1,3.1,6.8v2.4a9,9,0,0,1,2.553-.173c2.4.18,7.454.423,10.4.423H114.56c1.969,0,4.072-.177,5.688-.307l1.565-.12a9,9,0,0,1,6.76,2.4,9,9,0,0,1,2.859,6.579v11.351h.416c3.1-8.8,6.621-20.129,8.287-26.068a45.157,45.157,0,0,0,1.411-6.84,9,9,0,0,1,3.7-6.13,9,9,0,0,1,7.006-1.485l12.288,2.5a9,9,0,0,1,6.225,4.729,9,9,0,0,1,.177,7.815c-.865,1.9-1.778,4.387-2.7,7.04-.235.683-.5,1.469-.792,2.338l2.972-1.212a9,9,0,0,1,10.95,3.436c1.4,2.154,2.905,4.705,4.423,7.43q.1-.088.207-.173a61.564,61.564,0,0,0,5.007-4.627c2.005-2.005,5-5.653,8.224-9.545l3.336-4.012c4-4.759,8.585-7.176,13.62-7.165a16.967,16.967,0,0,1,9.284,2.926,17.577,17.577,0,0,1,15.229-8.84,17.66,17.66,0,0,1,17.64,17.622,8.991,8.991,0,0,1,1.913-.061c2.4.18,7.453.423,10.4.423H304.64c1.969,0,4.072-.177,5.688-.307l1.565-.12a9,9,0,0,1,4.695.954l1.841-2.8a8.969,8.969,0,0,1,3.028-2.858,9,9,0,0,1,1.324-3.286l5.632-8.576a9,9,0,0,1,11.817-2.969c3,1.627,6.935,4,10.41,6.2a9,9,0,0,1,3.514-2.583l6.4-2.624a8.984,8.984,0,0,1,3.095-.668l5.981-2.463A8.982,8.982,0,0,1,373.053-62.057ZM250.584-23.27v-1.793q-.516.349-1.058.662Zm73.3,7.851c-.837-.535-1.675-1.063-2.5-1.572a9,9,0,0,1-.651,2.154q.292-.069.589-.119Q322.638-15.176,323.881-15.418ZM412.8-42.28a17.98,17.98,0,0,1,17.96,17.96A17.98,17.98,0,0,1,412.8-6.36a17.98,17.98,0,0,1-17.96-17.96A17.98,17.98,0,0,1,412.8-42.28ZM221.819,28.214a9.012,9.012,0,0,1,2.16.263l7.69,1.9a8.963,8.963,0,0,1,5.771-2.094h9.92a9,9,0,0,1,8.922,7.808h9.254a9,9,0,0,1,9,9V52.22a8.985,8.985,0,0,1,3.52,7.14V68a9,9,0,0,1-5.5,8.3V97.824a9,9,0,0,1-9,9H253.5a8.97,8.97,0,0,1-6.287-2.56H235.4a8.974,8.974,0,0,1-6.539,2.816h-9.6a9,9,0,0,1-8.027-4.926l-9.461,4.261a9,9,0,0,1-11.648-3.993c-10.907.879-21.781,1.675-29.924,2.207-.222.014-.443.021-.661.019A9,9,0,0,1,147.5,104.5a31.541,31.541,0,0,0-5.327-3.541,9.154,9.154,0,0,1-3.722-2.91,35.124,35.124,0,0,1-14.8,2.95H105.664a8.959,8.959,0,0,1-4.7-1.326,8.959,8.959,0,0,1-4.7,1.326H65.344a8.989,8.989,0,0,1-7.36-3.819A9,9,0,0,1,50.624,101h-14.4a8.99,8.99,0,0,1-6.24-2.514A8.989,8.989,0,0,1,23.744,101H9.6A9,9,0,0,1,.744,93.6L-7.9,45.925A9,9,0,0,1,.96,35.32H12.608a8.987,8.987,0,0,1,6.432,2.7,8.992,8.992,0,0,1,6.432-2.7h9.664A8.993,8.993,0,0,1,41.6,38.057a8.987,8.987,0,0,1,6.464-2.737H58.88a9,9,0,0,1,3.229.6,8.979,8.979,0,0,1,3.235-.6H95.552a8.959,8.959,0,0,1,5.056,1.553,8.959,8.959,0,0,1,5.056-1.553H122.3c10.505,0,16.929,2.763,20.835,6.4a9,9,0,0,1,8.349-5.633h13.478a9,9,0,0,1,8.922-7.808h9.728a9,9,0,0,1,8.922,7.808H206.08a8.963,8.963,0,0,1,5.8,2.116,38.323,38.323,0,0,0,1.353-3.663A9,9,0,0,1,221.819,28.214Zm-18.531,34.77h-3.171a9,9,0,0,1,1.515,1.647c.468.656,1.029,1.454,1.656,2.367Zm6.976,13.787a8.933,8.933,0,0,1-.9-.257q.452.77.9,1.557ZM827.52,28.28h9.472a9,9,0,0,1,8.93,7.872h4.51a9,9,0,0,1,9,9v8.384a8.96,8.96,0,0,1-1.551,5.052q.014.256.015.516v8.384a8.958,8.958,0,0,1-1.216,4.521V98.016a9,9,0,0,1-9,9h-8.96a8.966,8.966,0,0,1-5.952-2.249,8.966,8.966,0,0,1-5.952,2.249H818.3a8.961,8.961,0,0,1-5.4-1.8,8.962,8.962,0,0,1-5.482,1.862h-8.192a9,9,0,0,1-8.492-6.012c-.15-.088-.334-.19-.543-.3-2.735,3.164-7.02,5.481-13.813,5.481h-7.3c-8.695,0-14.4-2.885-17.22-8.767-4.134,3.931-10.136,7.231-18.927,9.5a9,9,0,0,1-10.724-5.673,18.563,18.563,0,0,0-3.167-4.961,8.992,8.992,0,0,1-1.33-1.63l-1.165,3.434a9,9,0,0,1-9.207,6.082c-20.822-1.587-34.812-14.221-34.812-31.438a33.616,33.616,0,0,1,.851-7.5c-2.38.392-4.465.787-6.2,1.177q-.364.082-.731.133a9,9,0,0,1-8.925,7.83h-2.392v3.7h3.992a9,9,0,0,1,9,9v9.152a9,9,0,0,1-9,9H622.563a8.961,8.961,0,0,1-5.475,1.856h-9.216a9,9,0,0,1-9-9V91.331a9,9,0,0,1-6.45-6.092A33.425,33.425,0,0,0,590.7,81.16H534.4a9,9,0,0,1-8.538-6.146c-1.094.385-2.236.806-3.252,1.193a9,9,0,0,1,7.537,9.169l-.32,9.984a9,9,0,0,1-7.682,8.615,163.642,163.642,0,0,1-19.81,1.248c-23.946,0-26.939-13.635-27.045-19.906q-.293-.186-.572-.4l-3.329-2.5c-4.472,12.052-14.78,19.478-28.382,19.478-8.171,0-15.154-2.681-20.4-7.434A9,9,0,0,1,413.952,101H383.04a9,9,0,0,1-8.007-4.886,29.571,29.571,0,0,1-18.105,5.782,35.584,35.584,0,0,1-23.893-9.232,9,9,0,0,1-.827-12.362l5.841-7.044a21.892,21.892,0,0,1-6.121-15.371c0-13.34,11.3-23.4,26.28-23.4a31.407,31.407,0,0,1,17.172,5.105,8.994,8.994,0,0,1,7.66-4.273h30.208a9,9,0,0,1,8.782,7.024c5.3-5.015,12.5-7.856,20.978-7.856,9.58,0,17.527,3.63,22.951,9.923a9,9,0,0,1,10.343-7.7c1.256.2,3.037.373,4.952.49a9,9,0,0,1,9.459-6.781l10.24.832a9,9,0,0,1,7.353,5.011c2.268-.252,4.308-.54,6.144-.868a9,9,0,0,1,10.582,8.924l-.024,3.3a9,9,0,0,1,6.1,5.234l.272.646a8.983,8.983,0,0,1,3.018-.519h55.832V49.056a9,9,0,0,1,8.64-8.993V37.344a9,9,0,0,1,9-9h9.216a9,9,0,0,1,9,9V41.9l1.456.953v-4.87a9,9,0,0,1,9-9h9.6a9,9,0,0,1,9,9v9.5h.119a9,9,0,0,1,8.768-9.341c2.281-.057,4.791-.159,5.875-.273l27.55-2.319c6.586-.527,14.279-.983,19.038-1.179a9,9,0,0,1,5.942,1.925A8.964,8.964,0,0,1,728.32,34.1h14.257a9,9,0,0,1,8.4-5.76h9.984a9,9,0,0,1,8.4,5.76h14.577a8.968,8.968,0,0,1,6.072,2.357c.2-.582.373-1.137.525-1.657a9,9,0,0,1,11.56-5.972l8.192,2.816a9,9,0,0,1,5.133,4.5h3.172A9,9,0,0,1,827.52,28.28ZM443.1,73.967a13.65,13.65,0,0,0,1.088-6.031c0-3.788-.9-5.466-1.216-5.755-.186.273-1.072,1.966-1.072,5.755C441.9,71.5,442.685,73.342,443.1,73.967ZM721.173,81.9a8.975,8.975,0,0,1-2.813-6.536V74.9a9.008,9.008,0,0,1-1.748.562l-.168.076-1.414.62a9,9,0,0,1,5.383,6.179Q720.781,82.1,721.173,81.9ZM304.64,49.72a17.96,17.96,0,1,1-17.96,17.96A17.98,17.98,0,0,1,304.64,49.72Z" transform="translate(920.5 346)" fill="#fff"/><text transform="translate(920 346)" fill="#073491" font-size="64" font-family="NotoSansJP-Black, Noto Sans JP" font-weight="800"><tspan x="0" y="0">ホームページ・EC制作から</tspan><tspan x="0" y="92">WEB広告・SEO</tspan><tspan y="92" fill="#333">を一社で完結</tspan></text></g></svg>